# Blender v3.3.1 OBJ File: 'Platform.blend'
# www.blender.org
mtllib Obstacle1.mtl
o Цилиндр.001_Цилиндр
v 2.498312 -0.250000 -1.264293
v 2.498312 0.250000 -1.264293
v 2.532200 -0.250000 -1.194974
v 2.532200 0.250000 -1.194974
v 2.564165 -0.250000 -1.124747
v 2.564165 0.250000 -1.124747
v 2.594183 -0.250000 -1.053666
v 2.594183 0.250000 -1.053666
v 2.622231 -0.250000 -0.981785
v 2.622231 0.250000 -0.981785
v 2.648288 -0.250000 -0.909159
v 2.648288 0.250000 -0.909159
v 2.672334 -0.250000 -0.835841
v 2.672334 0.250000 -0.835841
v 2.694350 -0.250000 -0.761890
v 2.694350 0.250000 -0.761890
v 2.714321 -0.250000 -0.687359
v 2.714321 0.250000 -0.687359
v 2.732230 -0.250000 -0.612307
v 2.732230 0.250000 -0.612307
v 2.748064 -0.250000 -0.536790
v 2.748064 0.250000 -0.536790
v 2.761812 -0.250000 -0.460865
v 2.761812 0.250000 -0.460865
v 2.773462 -0.250000 -0.384590
v 2.773462 0.250000 -0.384590
v 2.783006 -0.250000 -0.308023
v 2.783006 0.250000 -0.308023
v 2.790437 -0.250000 -0.231222
v 2.790437 0.250000 -0.231222
v 2.795748 -0.250000 -0.154246
v 2.795748 0.250000 -0.154246
v 2.798937 -0.250000 -0.077152
v 2.798937 0.250000 -0.077152
v 2.800000 -0.250000 0.000000
v 2.800000 0.250000 0.000000
v 2.798937 -0.250000 0.077152
v 2.798937 0.250000 0.077152
v 2.795748 -0.250000 0.154246
v 2.795748 0.250000 0.154246
v 2.790437 -0.250000 0.231222
v 2.790437 0.250000 0.231222
v 2.783006 -0.250000 0.308023
v 2.783006 0.250000 0.308023
v 2.773462 -0.250000 0.384590
v 2.773462 0.250000 0.384590
v 2.761812 -0.250000 0.460865
v 2.761812 0.250000 0.460865
v 2.748064 -0.250000 0.536790
v 2.748064 0.250000 0.536790
v 2.732230 -0.250000 0.612307
v 2.732230 0.250000 0.612307
v 2.714321 -0.250000 0.687359
v 2.714321 0.250000 0.687359
v 2.694350 -0.250000 0.761890
v 2.694350 0.250000 0.761890
v 2.672334 -0.250000 0.835841
v 2.672334 0.250000 0.835841
v 2.648288 -0.250000 0.909159
v 2.648288 0.250000 0.909159
v 2.622231 -0.250000 0.981785
v 2.622231 0.250000 0.981785
v 2.594183 -0.250000 1.053666
v 2.594183 0.250000 1.053666
v 2.564165 -0.250000 1.124747
v 2.564165 0.250000 1.124747
v 2.532200 -0.250000 1.194974
v 2.532200 0.250000 1.194974
v 2.498312 -0.250000 1.264293
v 2.498312 0.250000 1.264293
v 2.462527 -0.250000 1.332653
v 2.462527 0.250000 1.332653
v 2.424871 -0.250000 1.400000
v 2.424871 0.250000 1.400000
v 2.385374 -0.250000 1.466284
v 2.385374 0.250000 1.466284
v 2.344066 -0.250000 1.531455
v 2.344066 0.250000 1.531455
v 2.300978 -0.250000 1.595463
v 2.300978 0.250000 1.595463
v 2.256142 -0.250000 1.658259
v 2.256142 0.250000 1.658259
v 2.209593 -0.250000 1.719796
v 2.209593 0.250000 1.719796
v 2.161366 -0.250000 1.780027
v 2.161366 0.250000 1.780027
v 2.111499 -0.250000 1.838906
v 2.111499 0.250000 1.838906
v 2.060027 -0.250000 1.896389
v 2.060027 0.250000 1.896389
v 2.006991 -0.250000 1.952431
v 2.006991 0.250000 1.952431
v 2.500000 0.250000 0.000000
v 2.499051 0.250000 -0.068886
v 2.499051 0.250000 0.068886
v 2.496204 0.250000 0.137719
v 2.491461 0.250000 -0.206448
v 2.496204 0.250000 -0.137719
v 2.491461 0.250000 0.206448
v 2.484827 0.250000 -0.275021
v 2.484827 0.250000 0.275021
v 2.465903 0.250000 -0.411487
v 2.465903 0.250000 0.411487
v 2.476305 0.250000 -0.343384
v 2.476305 0.250000 0.343384
v 2.453629 0.250000 -0.479277
v 2.439491 0.250000 -0.546703
v 2.439491 0.250000 0.546703
v 2.405670 0.250000 0.680259
v 2.423501 0.250000 0.613714
v 2.386013 0.250000 0.746287
v 2.423501 0.250000 -0.613714
v 2.453629 0.250000 0.479277
v 2.364543 0.250000 0.811749
v 2.316235 0.250000 0.940773
v 2.341278 0.250000 0.876594
v 2.260893 0.250000 1.066941
v 2.198684 0.250000 1.189868
v 2.230636 0.250000 1.128833
v 2.289433 0.250000 1.004239
v 2.092916 0.250000 1.367370
v 2.129798 0.250000 1.309182
v 2.014413 0.250000 1.480588
v 2.054445 0.250000 1.424520
v 2.165063 0.250000 1.250000
v 2.230636 0.250000 -1.128833
v 2.198684 0.250000 -1.189868
v 2.165063 0.250000 -1.250000
v 2.405670 0.250000 -0.680259
v 2.386013 0.250000 -0.746287
v 2.364543 0.250000 -0.811749
v 2.341278 0.250000 -0.876594
v 2.289433 0.250000 -1.004239
v 2.260893 0.250000 -1.066941
v 2.316235 0.250000 -0.940773
v 2.500000 -0.250000 0.000000
v 2.499051 -0.250000 -0.068886
v 2.499051 -0.250000 0.068886
v 2.496204 -0.250000 -0.137719
v 2.491461 -0.250000 -0.206448
v 2.496204 -0.250000 0.137719
v 2.491461 -0.250000 0.206448
v 2.484827 -0.250000 -0.275021
v 2.484827 -0.250000 0.275021
v 2.465903 -0.250000 -0.411487
v 2.465903 -0.250000 0.411487
v 2.476305 -0.250000 -0.343384
v 2.476305 -0.250000 0.343384
v 2.453629 -0.250000 -0.479277
v 2.439491 -0.250000 -0.546703
v 2.439491 -0.250000 0.546703
v 2.405670 -0.250000 -0.680259
v 2.405670 -0.250000 0.680259
v 2.423501 -0.250000 -0.613714
v 2.423501 -0.250000 0.613714
v 2.364543 -0.250000 0.811749
v 2.341278 -0.250000 -0.876594
v 2.316235 -0.250000 0.940773
v 2.364543 -0.250000 -0.811749
v 2.341278 -0.250000 0.876594
v 2.386013 -0.250000 -0.746287
v 2.386013 -0.250000 0.746287
v 2.316235 -0.250000 -0.940773
v 2.453629 -0.250000 0.479277
v 2.289433 -0.250000 -1.004239
v 2.230636 -0.250000 -1.128833
v 2.230636 -0.250000 1.128833
v 2.260893 -0.250000 -1.066941
v 2.260893 -0.250000 1.066941
v 2.165063 -0.250000 -1.250000
v 2.165063 -0.250000 1.250000
v 2.092916 -0.250000 1.367370
v 2.129798 -0.250000 1.309182
v 2.198684 -0.250000 -1.189868
v 2.198684 -0.250000 1.189868
v 2.014413 -0.250000 1.480588
v 2.054445 -0.250000 1.424520
v 2.289433 -0.250000 1.004239
v 1.994523 0.250000 1.964899
v 1.994523 -0.250000 1.964899
v 1.994523 0.250000 1.506882
v 1.994523 -0.250000 1.940302
v 1.994523 -0.250000 1.506882
v 2.489772 0.250000 -1.280607
v 2.489772 -0.250000 -1.280607
v 2.146826 0.250000 -1.280607
v 2.146826 -0.250000 -1.280607
vt 0.325609 1.000000
vt 0.324563 1.000000
vt 0.324563 0.500000
vt 0.325609 0.500000
vt 0.320177 1.000000
vt 0.320177 0.500000
vt 0.315791 1.000000
vt 0.315791 0.500000
vt 0.311405 1.000000
vt 0.311405 0.500000
vt 0.307019 1.000000
vt 0.307019 0.500000
vt 0.302633 1.000000
vt 0.302633 0.500000
vt 0.298247 1.000000
vt 0.298247 0.500000
vt 0.293861 1.000000
vt 0.293861 0.500000
vt 0.289475 1.000000
vt 0.289475 0.500000
vt 0.285089 1.000000
vt 0.285089 0.500000
vt 0.280703 1.000000
vt 0.280703 0.500000
vt 0.276317 1.000000
vt 0.276317 0.500000
vt 0.271931 1.000000
vt 0.271931 0.500000
vt 0.267545 1.000000
vt 0.267545 0.500000
vt 0.263159 1.000000
vt 0.263159 0.500000
vt 0.258773 1.000000
vt 0.258773 0.500000
vt 0.254387 1.000000
vt 0.254387 0.500000
vt 0.250001 1.000000
vt 0.250001 0.500000
vt 0.245615 1.000000
vt 0.245615 0.500000
vt 0.241229 1.000000
vt 0.241229 0.500000
vt 0.236843 1.000000
vt 0.236843 0.500000
vt 0.232457 1.000000
vt 0.232457 0.500000
vt 0.228071 1.000000
vt 0.228071 0.500000
vt 0.223685 1.000000
vt 0.223685 0.500000
vt 0.219299 1.000000
vt 0.219299 0.500000
vt 0.214913 1.000000
vt 0.214913 0.500000
vt 0.210527 1.000000
vt 0.210527 0.500000
vt 0.206142 1.000000
vt 0.206142 0.500000
vt 0.201756 1.000000
vt 0.201756 0.500000
vt 0.197370 1.000000
vt 0.197370 0.500000
vt 0.192984 1.000000
vt 0.192984 0.500000
vt 0.188598 1.000000
vt 0.188598 0.500000
vt 0.184212 1.000000
vt 0.184212 0.500000
vt 0.179826 1.000000
vt 0.179826 0.500000
vt 0.175440 1.000000
vt 0.175440 0.500000
vt 0.171054 1.000000
vt 0.171054 0.500000
vt 0.166668 1.000000
vt 0.166668 0.500000
vt 0.162282 1.000000
vt 0.162282 0.500000
vt 0.157896 1.000000
vt 0.157896 0.500000
vt 0.153510 1.000000
vt 0.153510 0.500000
vt 0.149124 1.000000
vt 0.149124 0.500000
vt 0.144738 1.000000
vt 0.144738 0.500000
vt 0.140352 1.000000
vt 0.140352 0.500000
vt 0.135966 1.000000
vt 0.135966 0.500000
vt 0.131580 1.000000
vt 0.131580 0.500000
vt 0.127194 1.000000
vt 0.127194 0.500000
vt 0.126192 1.000000
vt 0.126192 0.500000
vt 0.079041 0.418420
vt 0.077972 0.417351
vt 0.073426 0.412548
vt 0.069014 0.407620
vt 0.064740 0.402574
vt 0.060606 0.397411
vt 0.056616 0.392136
vt 0.052773 0.386754
vt 0.049080 0.381268
vt 0.045539 0.375682
vt 0.042154 0.370000
vt 0.038926 0.364227
vt 0.035859 0.358368
vt 0.032954 0.352426
vt 0.030214 0.346407
vt 0.027641 0.340314
vt 0.025237 0.334153
vt 0.023004 0.327928
vt 0.020943 0.321644
vt 0.019056 0.315305
vt 0.017344 0.308917
vt 0.015809 0.302483
vt 0.014452 0.296011
vt 0.013273 0.289503
vt 0.012275 0.282965
vt 0.011457 0.276402
vt 0.010820 0.269819
vt 0.010364 0.263221
vt 0.010091 0.256613
vt 0.010000 0.250000
vt 0.010091 0.243387
vt 0.010364 0.236779
vt 0.010820 0.230181
vt 0.011457 0.223598
vt 0.012275 0.217035
vt 0.013273 0.210497
vt 0.014452 0.203989
vt 0.015809 0.197517
vt 0.017344 0.191083
vt 0.019056 0.184695
vt 0.020943 0.178356
vt 0.023004 0.172072
vt 0.025237 0.165847
vt 0.027641 0.159686
vt 0.030214 0.153593
vt 0.032954 0.147574
vt 0.035859 0.141632
vt 0.036591 0.140234
vt 0.065986 0.140234
vt 0.064423 0.142857
vt 0.061541 0.148011
vt 0.058803 0.153243
vt 0.056209 0.158548
vt 0.053763 0.163922
vt 0.051466 0.169362
vt 0.049319 0.174863
vt 0.047325 0.180422
vt 0.045485 0.186033
vt 0.043800 0.191692
vt 0.042271 0.197396
vt 0.040901 0.203140
vt 0.039689 0.208919
vt 0.038637 0.214730
vt 0.037745 0.220567
vt 0.037015 0.226427
vt 0.036446 0.232304
vt 0.036040 0.238195
vt 0.035796 0.244096
vt 0.035714 0.250000
vt 0.035796 0.255904
vt 0.036040 0.261805
vt 0.036446 0.267695
vt 0.037015 0.273573
vt 0.037745 0.279433
vt 0.038637 0.285270
vt 0.039689 0.291081
vt 0.040901 0.296860
vt 0.042271 0.302604
vt 0.043800 0.308308
vt 0.045485 0.313967
vt 0.047325 0.319579
vt 0.049319 0.325137
vt 0.051466 0.330638
vt 0.053763 0.336077
vt 0.056209 0.341452
vt 0.058803 0.346757
vt 0.061541 0.351989
vt 0.064423 0.357143
vt 0.067446 0.362216
vt 0.070607 0.367203
vt 0.073905 0.372102
vt 0.077336 0.376908
vt 0.079041 0.379161
vt 0.577972 0.417351
vt 0.579041 0.418420
vt 0.579041 0.416312
vt 0.536591 0.140234
vt 0.535859 0.141632
vt 0.532954 0.147574
vt 0.530214 0.153593
vt 0.527641 0.159686
vt 0.525237 0.165847
vt 0.523004 0.172072
vt 0.520943 0.178356
vt 0.519056 0.184695
vt 0.517344 0.191083
vt 0.515809 0.197517
vt 0.514452 0.203989
vt 0.513273 0.210497
vt 0.512275 0.217035
vt 0.511457 0.223598
vt 0.510820 0.230181
vt 0.510364 0.236779
vt 0.510091 0.243387
vt 0.510000 0.250000
vt 0.510091 0.256613
vt 0.510364 0.263221
vt 0.510820 0.269819
vt 0.511457 0.276402
vt 0.512275 0.282965
vt 0.513273 0.289503
vt 0.514452 0.296011
vt 0.515809 0.302483
vt 0.517344 0.308917
vt 0.519056 0.315305
vt 0.520943 0.321644
vt 0.523004 0.327928
vt 0.525237 0.334153
vt 0.527641 0.340314
vt 0.530214 0.346407
vt 0.532954 0.352426
vt 0.535859 0.358368
vt 0.538926 0.364227
vt 0.542154 0.370000
vt 0.545539 0.375682
vt 0.549080 0.381268
vt 0.552773 0.386754
vt 0.556616 0.392136
vt 0.560606 0.397411
vt 0.564740 0.402574
vt 0.569014 0.407620
vt 0.573426 0.412548
vt 0.579041 0.379161
vt 0.577336 0.376908
vt 0.573905 0.372102
vt 0.570607 0.367203
vt 0.567446 0.362216
vt 0.564423 0.357143
vt 0.561541 0.351989
vt 0.558802 0.346757
vt 0.556209 0.341452
vt 0.553763 0.336077
vt 0.551465 0.330638
vt 0.549319 0.325137
vt 0.547325 0.319578
vt 0.545484 0.313967
vt 0.543800 0.308308
vt 0.542271 0.302604
vt 0.540901 0.296860
vt 0.539689 0.291081
vt 0.538637 0.285270
vt 0.537745 0.279433
vt 0.537015 0.273573
vt 0.536446 0.267696
vt 0.536039 0.261805
vt 0.535795 0.255904
vt 0.535714 0.250000
vt 0.535796 0.244095
vt 0.536039 0.238195
vt 0.536446 0.232304
vt 0.537015 0.226427
vt 0.537745 0.220567
vt 0.538637 0.214730
vt 0.539689 0.208919
vt 0.540901 0.203140
vt 0.542271 0.197396
vt 0.543800 0.191692
vt 0.545485 0.186032
vt 0.547325 0.180422
vt 0.549319 0.174863
vt 0.551466 0.169362
vt 0.553763 0.163922
vt 0.556209 0.158548
vt 0.558802 0.153243
vt 0.561541 0.148011
vt 0.564423 0.142857
vt 0.565986 0.140234
vt 0.333335 0.646694
vt 0.333335 0.853306
vt 0.335603 0.853306
vt 0.335603 0.646694
vt 0.328949 0.646694
vt 0.328949 0.853306
vt 0.324563 0.646694
vt 0.324563 0.853306
vt 0.320177 0.646694
vt 0.320177 0.853306
vt 0.315791 0.646694
vt 0.315791 0.853306
vt 0.311405 0.646694
vt 0.311405 0.853306
vt 0.307019 0.646694
vt 0.307019 0.853306
vt 0.302633 0.646694
vt 0.302633 0.853306
vt 0.298247 0.646694
vt 0.298247 0.853306
vt 0.293861 0.646694
vt 0.293861 0.853306
vt 0.289475 0.646694
vt 0.289475 0.853306
vt 0.285089 0.646694
vt 0.285089 0.853306
vt 0.280703 0.646694
vt 0.280703 0.853306
vt 0.276317 0.646694
vt 0.276317 0.853306
vt 0.271931 0.646694
vt 0.271931 0.853306
vt 0.267545 0.646694
vt 0.267545 0.853306
vt 0.263159 0.646694
vt 0.263159 0.853306
vt 0.258773 0.646694
vt 0.258773 0.853306
vt 0.254387 0.646694
vt 0.254387 0.853306
vt 0.250001 0.646694
vt 0.250001 0.853306
vt 0.245615 0.646694
vt 0.245615 0.853306
vt 0.241229 0.646694
vt 0.241229 0.853306
vt 0.236843 0.646694
vt 0.236843 0.853306
vt 0.232457 0.646694
vt 0.232457 0.853306
vt 0.228071 0.646694
vt 0.228071 0.853306
vt 0.223685 0.646694
vt 0.223685 0.853306
vt 0.219299 0.646694
vt 0.219299 0.853306
vt 0.214913 0.646694
vt 0.214913 0.853306
vt 0.210527 0.646694
vt 0.210527 0.853306
vt 0.206142 0.646694
vt 0.206142 0.853306
vt 0.201756 0.646694
vt 0.201756 0.853306
vt 0.197370 0.646694
vt 0.197370 0.853306
vt 0.192984 0.646694
vt 0.192984 0.853306
vt 0.188598 0.646694
vt 0.188598 0.853306
vt 0.184212 0.646694
vt 0.184212 0.853306
vt 0.179826 0.646694
vt 0.179826 0.853306
vt 0.175440 0.646694
vt 0.175440 0.853306
vt 0.171054 0.646694
vt 0.171054 0.853306
vt 0.166668 0.646694
vt 0.166668 0.853306
vt 0.162282 0.646694
vt 0.162282 0.853306
vt 0.157896 0.646694
vt 0.157896 0.853306
vt 0.153510 0.646694
vt 0.153510 0.853306
vt 0.149124 0.646694
vt 0.149124 0.853306
vt 0.147025 0.646694
vt 0.147025 0.853306
vt 0.468750 0.103489
vt 0.468750 0.106564
vt 0.531250 0.106564
vt 0.531250 0.049312
vt 0.468750 0.049312
vt 0.531250 0.424375
vt 0.468750 0.424375
vt 0.468750 0.381982
vt 0.531250 0.381982
vn 0.8859 0.0000 -0.4638
vn 0.8984 0.0000 -0.4392
vn 0.9102 0.0000 -0.4143
vn 0.9212 0.0000 -0.3890
vn 0.9316 0.0000 -0.3635
vn 0.9413 0.0000 -0.3377
vn 0.9502 0.0000 -0.3116
vn 0.9584 0.0000 -0.2853
vn 0.9659 0.0000 -0.2588
vn 0.9727 0.0000 -0.2321
vn 0.9787 0.0000 -0.2052
vn 0.9840 0.0000 -0.1782
vn 0.9885 0.0000 -0.1510
vn 0.9923 0.0000 -0.1237
vn 0.9954 0.0000 -0.0963
vn 0.9976 0.0000 -0.0688
vn 0.9991 0.0000 -0.0413
vn 0.9999 0.0000 -0.0138
vn 0.9999 0.0000 0.0138
vn 0.9991 0.0000 0.0413
vn 0.9976 0.0000 0.0688
vn 0.9954 0.0000 0.0963
vn 0.9923 0.0000 0.1237
vn 0.9885 0.0000 0.1510
vn 0.9840 0.0000 0.1782
vn 0.9787 0.0000 0.2052
vn 0.9727 0.0000 0.2321
vn 0.9659 0.0000 0.2588
vn 0.9584 0.0000 0.2853
vn 0.9502 0.0000 0.3116
vn 0.9413 0.0000 0.3377
vn 0.9316 0.0000 0.3635
vn 0.9212 0.0000 0.3890
vn 0.9102 0.0000 0.4143
vn 0.8984 0.0000 0.4392
vn 0.8859 0.0000 0.4638
vn 0.8728 0.0000 0.4880
vn 0.8591 0.0000 0.5119
vn 0.8446 0.0000 0.5354
vn 0.8296 0.0000 0.5584
vn 0.8138 0.0000 0.5811
vn 0.7975 0.0000 0.6033
vn 0.7806 0.0000 0.6250
vn 0.7631 0.0000 0.6463
vn 0.7450 0.0000 0.6671
vn 0.7263 0.0000 0.6874
vn 0.7071 0.0000 0.7071
vn 0.0000 1.0000 0.0000
vn 0.0000 -1.0000 0.0000
vn -0.8591 0.0000 0.5119
vn -0.8728 0.0000 0.4880
vn -0.8859 0.0000 0.4638
vn -0.8984 0.0000 0.4392
vn -0.9102 0.0000 0.4143
vn -0.9212 0.0000 0.3890
vn -0.9316 0.0000 0.3635
vn -0.9413 0.0000 0.3377
vn -0.9502 0.0000 0.3116
vn -0.9584 0.0000 0.2853
vn -0.9659 0.0000 0.2588
vn -0.9727 0.0000 0.2321
vn -0.9787 0.0000 0.2052
vn -0.9840 0.0000 0.1782
vn -0.9885 0.0000 0.1510
vn -0.9923 0.0000 0.1237
vn -0.9954 0.0000 0.0963
vn -0.9976 0.0000 0.0688
vn -0.9991 0.0000 0.0413
vn -0.9999 0.0000 0.0138
vn -0.9999 0.0000 -0.0138
vn -0.9991 0.0000 -0.0413
vn -0.9976 0.0000 -0.0688
vn -0.9954 0.0000 -0.0963
vn -0.9923 0.0000 -0.1237
vn -0.9885 0.0000 -0.1510
vn -0.9840 0.0000 -0.1782
vn -0.9787 0.0000 -0.2052
vn -0.9727 0.0000 -0.2321
vn -0.9659 0.0000 -0.2588
vn -0.9584 0.0000 -0.2853
vn -0.9502 0.0000 -0.3116
vn -0.9413 0.0000 -0.3377
vn -0.9316 0.0000 -0.3635
vn -0.9212 0.0000 -0.3890
vn -0.9102 0.0000 -0.4143
vn -0.8984 0.0000 -0.4392
vn -0.8859 0.0000 -0.4638
vn -0.8728 0.0000 -0.4880
vn -0.8591 0.0000 -0.5119
vn -0.8446 0.0000 -0.5354
vn -0.8296 0.0000 -0.5584
vn -0.8138 0.0000 -0.5811
vn -0.7975 0.0000 -0.6033
vn -1.0000 0.0000 0.0000
vn 0.0000 0.0000 -1.0000
usemtl (null)
s off
f 184/1/1 2/2/1 1/3/1 185/4/1
f 1/3/2 2/2/2 4/5/2 3/6/2
f 3/6/3 4/5/3 6/7/3 5/8/3
f 5/8/4 6/7/4 8/9/4 7/10/4
f 7/10/5 8/9/5 10/11/5 9/12/5
f 9/12/6 10/11/6 12/13/6 11/14/6
f 11/14/7 12/13/7 14/15/7 13/16/7
f 13/16/8 14/15/8 16/17/8 15/18/8
f 15/18/9 16/17/9 18/19/9 17/20/9
f 17/20/10 18/19/10 20/21/10 19/22/10
f 19/22/11 20/21/11 22/23/11 21/24/11
f 21/24/12 22/23/12 24/25/12 23/26/12
f 23/26/13 24/25/13 26/27/13 25/28/13
f 25/28/14 26/27/14 28/29/14 27/30/14
f 27/30/15 28/29/15 30/31/15 29/32/15
f 29/32/16 30/31/16 32/33/16 31/34/16
f 31/34/17 32/33/17 34/35/17 33/36/17
f 33/36/18 34/35/18 36/37/18 35/38/18
f 35/38/19 36/37/19 38/39/19 37/40/19
f 37/40/20 38/39/20 40/41/20 39/42/20
f 39/42/21 40/41/21 42/43/21 41/44/21
f 41/44/22 42/43/22 44/45/22 43/46/22
f 43/46/23 44/45/23 46/47/23 45/48/23
f 45/48/24 46/47/24 48/49/24 47/50/24
f 47/50/25 48/49/25 50/51/25 49/52/25
f 49/52/26 50/51/26 52/53/26 51/54/26
f 51/54/27 52/53/27 54/55/27 53/56/27
f 53/56/28 54/55/28 56/57/28 55/58/28
f 55/58/29 56/57/29 58/59/29 57/60/29
f 57/60/30 58/59/30 60/61/30 59/62/30
f 59/62/31 60/61/31 62/63/31 61/64/31
f 61/64/32 62/63/32 64/65/32 63/66/32
f 63/66/33 64/65/33 66/67/33 65/68/33
f 65/68/34 66/67/34 68/69/34 67/70/34
f 67/70/35 68/69/35 70/71/35 69/72/35
f 69/72/36 70/71/36 72/73/36 71/74/36
f 71/74/37 72/73/37 74/75/37 73/76/37
f 73/76/38 74/75/38 76/77/38 75/78/38
f 75/78/39 76/77/39 78/79/39 77/80/39
f 77/80/40 78/79/40 80/81/40 79/82/40
f 79/82/41 80/81/41 82/83/41 81/84/41
f 81/84/42 82/83/42 84/85/42 83/86/42
f 83/86/43 84/85/43 86/87/43 85/88/43
f 85/88/44 86/87/44 88/89/44 87/90/44
f 87/90/45 88/89/45 90/91/45 89/92/45
f 89/92/46 90/91/46 92/93/46 91/94/46
f 91/94/47 92/93/47 179/95/47 180/96/47
f 179/97/48 92/98/48 90/99/48 88/100/48 86/101/48 84/102/48 82/103/48 80/104/48 78/105/48 76/106/48 74/107/48 72/108/48 70/109/48 68/110/48 66/111/48 64/112/48 62/113/48 60/114/48 58/115/48 56/116/48 54/117/48 52/118/48 50/119/48 48/120/48 46/121/48 44/122/48 42/123/48 40/124/48 38/125/48 36/126/48 34/127/48 32/128/48 30/129/48 28/130/48 26/131/48 24/132/48 22/133/48 20/134/48 18/135/48 16/136/48 14/137/48 12/138/48 10/139/48 8/140/48 6/141/48 4/142/48 2/143/48 184/144/48 186/145/48 128/146/48 127/147/48 126/148/48 134/149/48 133/150/48 135/151/48 132/152/48 131/153/48 130/154/48 129/155/48 112/156/48 107/157/48 106/158/48 102/159/48 104/160/48 100/161/48 97/162/48 98/163/48 94/164/48 93/165/48 95/166/48 96/167/48 99/168/48 101/169/48 105/170/48 103/171/48 113/172/48 108/173/48 110/174/48 109/175/48 111/176/48 114/177/48 116/178/48 115/179/48 120/180/48 117/181/48 119/182/48 118/183/48 125/184/48 122/185/48 121/186/48 124/187/48 123/188/48 181/189/48
f 91/190/49 180/191/49 182/192/49
f 185/193/49 1/194/49 3/195/49 5/196/49 7/197/49 9/198/49 11/199/49 13/200/49 15/201/49 17/202/49 19/203/49 21/204/49 23/205/49 25/206/49 27/207/49 29/208/49 31/209/49 33/210/49 35/211/49 37/212/49 39/213/49 41/214/49 43/215/49 45/216/49 47/217/49 49/218/49 51/219/49 53/220/49 55/221/49 57/222/49 59/223/49 61/224/49 63/225/49 65/226/49 67/227/49 69/228/49 71/229/49 73/230/49 75/231/49 77/232/49 79/233/49 81/234/49 83/235/49 85/236/49 87/237/49 89/238/49 91/190/49 182/192/49 183/239/49 176/240/49 177/241/49 172/242/49 173/243/49 171/244/49 175/245/49 167/246/49 169/247/49 178/248/49 158/249/49 160/250/49 156/251/49 162/252/49 153/253/49 155/254/49 151/255/49 164/256/49 146/257/49 148/258/49 144/259/49 142/260/49 141/261/49 138/262/49 136/263/49 137/264/49 139/265/49 140/266/49 143/267/49 147/268/49 145/269/49 149/270/49 150/271/49 154/272/49 152/273/49 161/274/49 159/275/49 157/276/49 163/277/49 165/278/49 168/279/49 166/280/49 174/281/49 170/282/49 187/283/49
f 170/284/50 128/285/50 186/286/50 187/287/50
f 174/288/51 127/289/51 128/285/51 170/284/51
f 166/290/52 126/291/52 127/289/52 174/288/52
f 168/292/53 134/293/53 126/291/53 166/290/53
f 165/294/54 133/295/54 134/293/54 168/292/54
f 163/296/55 135/297/55 133/295/55 165/294/55
f 157/298/56 132/299/56 135/297/56 163/296/56
f 159/300/57 131/301/57 132/299/57 157/298/57
f 161/302/58 130/303/58 131/301/58 159/300/58
f 152/304/59 129/305/59 130/303/59 161/302/59
f 154/306/60 112/307/60 129/305/60 152/304/60
f 150/308/61 107/309/61 112/307/61 154/306/61
f 149/310/62 106/311/62 107/309/62 150/308/62
f 145/312/63 102/313/63 106/311/63 149/310/63
f 147/314/64 104/315/64 102/313/64 145/312/64
f 143/316/65 100/317/65 104/315/65 147/314/65
f 140/318/66 97/319/66 100/317/66 143/316/66
f 139/320/67 98/321/67 97/319/67 140/318/67
f 137/322/68 94/323/68 98/321/68 139/320/68
f 136/324/69 93/325/69 94/323/69 137/322/69
f 138/326/70 95/327/70 93/325/70 136/324/70
f 141/328/71 96/329/71 95/327/71 138/326/71
f 142/330/72 99/331/72 96/329/72 141/328/72
f 144/332/73 101/333/73 99/331/73 142/330/73
f 148/334/74 105/335/74 101/333/74 144/332/74
f 146/336/75 103/337/75 105/335/75 148/334/75
f 164/338/76 113/339/76 103/337/76 146/336/76
f 151/340/77 108/341/77 113/339/77 164/338/77
f 155/342/78 110/343/78 108/341/78 151/340/78
f 153/344/79 109/345/79 110/343/79 155/342/79
f 162/346/80 111/347/80 109/345/80 153/344/80
f 156/348/81 114/349/81 111/347/81 162/346/81
f 160/350/82 116/351/82 114/349/82 156/348/82
f 158/352/83 115/353/83 116/351/83 160/350/83
f 178/354/84 120/355/84 115/353/84 158/352/84
f 169/356/85 117/357/85 120/355/85 178/354/85
f 167/358/86 119/359/86 117/357/86 169/356/86
f 175/360/87 118/361/87 119/359/87 167/358/87
f 171/362/88 125/363/88 118/361/88 175/360/88
f 173/364/89 122/365/89 125/363/89 171/362/89
f 172/366/90 121/367/90 122/365/90 173/364/90
f 177/368/91 124/369/91 121/367/91 172/366/91
f 176/370/92 123/371/92 124/369/92 177/368/92
f 123/371/93 176/370/93 183/372/93 181/373/93
f 182/374/94 180/375/94 179/376/94 181/377/94 183/378/94
f 184/379/95 185/380/95 187/381/95 186/382/95
